<svg width="412" height="614" viewBox="0 0 412 614" fill="none" xmlns="http://www.w3.org/2000/svg">
<path d="M326.458 595.964C330.531 598.055 335.768 599.101 342.169 599.101C352.644 599.101 363.41 596.226 374.466 590.475C385.523 584.725 394.542 578.19 401.525 570.871C406.181 565.643 409.09 559.631 410.254 552.835C411.418 546.039 412 538.72 412 530.879C411.418 523.037 410.836 515.195 410.254 507.354C409.09 498.989 408.799 491.409 409.381 484.613C410.545 473.635 410.836 460.043 410.254 443.837C409.09 427.108 407.636 409.595 405.89 391.298C404.144 372.478 402.107 353.658 399.78 334.838C396.87 315.495 394.251 298.243 391.924 283.083C389.596 267.4 387.559 254.592 385.814 244.659C383.486 234.203 382.322 228.453 382.322 227.407C373.011 204.405 360.791 184.278 345.661 167.027C330.531 149.775 310.455 135.399 285.432 123.898C277.867 119.716 270.011 116.579 261.864 114.488C253.136 111.874 244.407 110.567 235.678 110.567C226.949 110.567 217.056 112.658 206 116.84C196.107 121.023 185.633 127.819 174.576 137.229C162.938 146.116 153.045 154.219 144.898 161.538C136.751 171.993 130.932 182.971 127.441 194.473C123.367 205.974 117.257 216.952 109.11 227.407C102.709 239.431 96.017 251.194 89.0339 262.695C82.0509 273.673 75.3588 285.958 68.9576 299.55C63.1384 312.097 57.6102 327.78 52.3729 346.6C46.5537 364.897 41.3164 383.979 36.661 403.844C32.0056 423.71 27.6412 443.314 23.5678 462.656C18.9124 481.999 14.839 498.989 11.3475 513.627C9.01979 521.991 6.40113 531.663 3.49151 542.641C-6.4373e-06 553.619 -0.872876 564.336 0.872881 574.792C2.03672 584.724 7.56499 593.35 17.4576 600.669C26.7684 607.988 42.7712 612.432 65.4661 614C77.1045 614 89.3249 610.863 102.127 604.59C114.929 598.317 125.404 591.782 133.551 584.986C140.534 579.235 146.062 570.348 150.136 558.324C154.209 545.778 157.992 532.97 161.483 519.9C164.393 506.831 167.593 495.068 171.085 484.613C174.576 473.635 179.523 466.839 185.924 464.225C200.472 454.815 213.856 450.11 226.076 450.11C233.641 450.11 240.333 451.417 246.153 454.031C251.39 456.644 256.336 460.043 260.992 464.225C269.72 471.544 273.212 479.385 271.466 487.75C269.72 496.114 268.847 504.478 268.847 512.843C268.847 522.253 270.593 531.14 274.085 539.504C276.994 547.869 281.359 555.71 287.178 563.029C292.415 570.348 298.525 576.883 305.508 582.633C312.492 587.861 319.475 592.305 326.458 595.964ZM328.203 72.9272C331.695 78.155 334.314 84.1669 336.059 90.9629C337.223 97.759 334.023 103.51 326.458 108.215C319.475 111.874 312.492 112.397 305.508 109.783C297.943 106.646 291.833 102.464 287.178 97.2363C285.432 95.1452 282.232 91.4857 277.576 86.258C272.921 80.5075 267.684 75.2797 261.864 70.5747C256.045 65.8697 250.808 62.9945 246.153 61.9489C240.915 60.3806 236.842 63.2559 233.932 70.5747C231.605 75.8025 226.367 82.3372 218.22 90.1788C210.073 97.4977 201.636 102.464 192.907 105.078C189.997 106.123 186.215 106.646 181.559 106.646C176.904 106.123 172.249 105.078 167.593 103.51C162.356 101.941 158.282 100.112 155.373 98.0204C151.881 95.4065 149.845 92.2699 149.263 88.6105C148.681 83.9055 149.554 79.7233 151.881 76.0639C153.627 71.8816 156.246 67.9608 159.737 64.3014C162.647 60.1192 165.556 56.4598 168.466 53.3231C171.376 49.6637 172.831 46.7884 172.831 44.6973C173.994 41.0379 176.322 38.1626 179.814 36.0715C183.305 33.4576 186.506 30.8438 189.415 28.2299C194.071 21.9566 200.181 15.9447 207.746 10.1941C214.729 3.92081 223.458 0.522769 233.932 0C243.825 0 251.972 2.61388 258.373 7.84163C264.192 13.0694 270.011 18.5586 275.831 24.3091C282.814 31.6279 292.124 39.4696 303.763 47.834C314.819 56.1984 322.966 64.5628 328.203 72.9272Z" fill="#DC5639"/>
</svg>
