<svg width="848" height="208" viewBox="0 0 848 208" fill="none" xmlns="http://www.w3.org/2000/svg">
<path d="M98.2917 4.75C101.792 7.58334 103.708 11.5 104.042 16.5C104.542 21.5 104.125 26.3333 102.792 31C102.125 33.1667 100.792 35.0833 98.7917 36.75C96.7917 38.25 94.625 39.6667 92.2917 41C89.9583 42.3333 87.625 43.75 85.2917 45.25C83.125 46.5833 81.2917 48.1667 79.7917 50C79.4583 50.3333 78.875 51.5 78.0417 53.5C77.375 55.5 76.625 58.0833 75.7917 61.25C74.9583 64.25 74.125 67.5 73.2917 71C72.4583 74.5 71.7917 78 71.2917 81.5C70.9583 84.8333 70.7917 87.8333 70.7917 90.5C70.9583 93.1667 71.5417 95.1667 72.5417 96.5C72.5417 96.6667 73.7917 97 76.2917 97.5C78.9583 97.8333 81.875 98.25 85.0417 98.75C88.2083 99.25 91.125 99.75 93.7917 100.25C96.625 100.583 98.125 100.917 98.2917 101.25C106.458 101.583 112.125 103.083 115.292 105.75C118.458 108.417 120.042 111.417 120.042 114.75C120.208 118.083 119.125 121.25 116.792 124.25C114.625 127.25 112.208 129.167 109.542 130C107.875 131.167 105.875 132.25 103.542 133.25C101.375 134.25 99.2083 135.167 97.0417 136C96.0417 136.333 93.9583 136.917 90.7917 137.75C87.7917 138.417 84.5417 139.167 81.0417 140C77.7083 140.833 74.7083 141.833 72.0417 143C69.5417 144 68.2917 145 68.2917 146C68.2917 146.667 68.2083 148.833 68.0417 152.5C67.875 156.167 67.7083 160.083 67.5417 164.25C67.5417 168.25 67.4583 172.083 67.2917 175.75C67.125 179.25 67.0417 181.25 67.0417 181.75C66.875 184.25 66.375 187 65.5417 190C64.875 193.167 63.7917 196.083 62.2917 198.75C60.9583 201.417 59.2083 203.583 57.0417 205.25C55.0417 207.083 52.7917 208 50.2917 208C48.2917 208 46.2917 207.5 44.2917 206.5C42.4583 205.5 40.7917 204.167 39.2917 202.5C37.7917 200.833 36.5417 199 35.5417 197C34.5417 195 34.0417 193.083 34.0417 191.25C33.375 188.917 33.2917 185.583 33.7917 181.25C34.2917 177.083 34.7917 172.667 35.2917 168C35.7917 163.167 35.9583 158.417 35.7917 153.75C35.7917 149.083 34.875 145.167 33.0417 142C33.0417 141.667 31.7917 141.25 29.2917 140.75C26.9583 140.25 23.2917 140.083 18.2917 140.25C16.9583 140.583 15.7083 140.583 14.5417 140.25C13.5417 139.917 12.2917 139.583 10.7917 139.25C8.45833 138.417 6.45833 137.25 4.79167 135.75C3.125 134.25 1.875 132.583 1.04167 130.75C0.208333 128.583 -0.125 126.75 0.0416667 125.25C0.208333 123.583 1.04167 121.833 2.54167 120C3.875 118.167 5.625 116.583 7.79167 115.25C10.125 113.917 12.2083 112.667 14.0417 111.5L15.5417 111.25C16.5417 110.583 17.625 110.167 18.7917 110C19.9583 109.833 21.2083 109.417 22.5417 108.75C25.2083 108.583 27.2917 108.333 28.7917 108C30.2917 107.667 31.375 107.083 32.0417 106.25C32.875 105.417 33.375 104.333 33.5417 103C33.7083 101.5 33.7917 99.6667 33.7917 97.5C33.4583 97.1667 33.2917 96.5833 33.2917 95.75C33.125 91.9167 33.125 87.25 33.2917 81.75C33.625 76.25 34.125 70.4167 34.7917 64.25C35.625 57.9167 36.625 51.5833 37.7917 45.25C39.125 38.9167 40.7083 33 42.5417 27.5C44.375 21.8333 46.4583 17 48.7917 13C51.125 8.83333 53.7917 5.91667 56.7917 4.25C59.2917 2.91667 62.5417 1.91667 66.5417 1.25C70.5417 0.416666 74.625 0 78.7917 0C82.7917 0 86.5417 0.416666 90.0417 1.25C93.7083 1.91667 96.4583 3.08333 98.2917 4.75Z" fill="#DC5639"/>
<path d="M187.983 15.75C187.983 18.9167 188.316 22.0833 188.983 25.25C189.65 28.4167 190.066 31.5833 190.233 34.75C190.566 37.9167 190.4 41.0833 189.733 44.25C189.066 47.25 187.4 50.1667 184.733 53C184.733 53.3333 184.566 54.0833 184.233 55.25C184.066 56.25 183.816 57.4167 183.483 58.75C183.15 60.25 182.733 61.9167 182.233 63.75C181.066 66.75 180.316 69.5 179.983 72C179.816 74.5 179.816 77 179.983 79.5C180.15 81.8333 180.316 84.3333 180.483 87C180.816 89.5 180.983 92.4167 180.983 95.75C180.983 101.75 181.233 108.083 181.733 114.75C182.233 121.417 182.65 128.167 182.983 135C183.316 141.833 183.483 148.583 183.483 155.25C183.483 161.917 182.983 168.167 181.983 174C181.983 175 181.816 176 181.483 177C181.15 178 180.983 179.333 180.983 181C180.816 182.333 180.066 183.417 178.733 184.25C177.4 185.083 175.816 185.75 173.983 186.25C172.316 186.75 170.566 187.083 168.733 187.25C166.9 187.417 165.316 187.5 163.983 187.5H162.983C155.15 186.5 149.066 182.417 144.733 175.25C142.066 169.25 140.483 162.417 139.983 154.75C139.483 147.083 139.483 139.25 139.983 131.25C140.65 123.083 141.483 115.083 142.483 107.25C143.65 99.4167 144.566 92.3333 145.233 86C145.9 80 146.566 73.25 147.233 65.75C148.066 58.0833 148.9 50.75 149.733 43.75C150.566 36.75 151.4 30.5 152.233 25C153.233 19.5 154.066 15.9167 154.733 14.25C155.066 12.9167 155.65 11.5833 156.483 10.25C157.316 8.91667 158.316 7.66667 159.483 6.50001C160.816 5.16667 162.15 4.08334 163.483 3.25C164.983 2.25001 166.483 1.66667 167.983 1.5C172.65 1 176.816 2 180.483 4.5C184.15 7 186.65 10.75 187.983 15.75Z" fill="#DC5639"/>
<path d="M331.311 140.5C332.145 142.167 332.728 144.167 333.061 146.5C333.395 148.667 333.478 151 333.311 153.5C333.311 155.833 332.978 158.25 332.311 160.75C331.811 163.083 331.061 165.167 330.061 167C328.228 168.833 326.478 170.25 324.811 171.25C323.145 172.25 321.145 173.083 318.811 173.75C316.311 173.75 313.811 172.917 311.311 171.25C308.811 169.583 306.395 167.5 304.061 165C301.728 162.5 299.561 159.833 297.561 157C295.561 154.167 293.811 151.667 292.311 149.5L291.311 148.25C289.478 145.417 288.311 142.333 287.811 139C287.311 135.5 286.811 132.25 286.311 129.25C285.811 126.25 284.978 123.75 283.811 121.75C282.811 119.583 280.811 118.5 277.811 118.5C275.478 119.5 273.561 120.917 272.061 122.75C270.728 124.583 269.561 126.5 268.561 128.5C267.561 130.5 266.645 132.583 265.811 134.75C265.145 136.75 264.395 138.667 263.561 140.5C262.728 142.167 262.145 143.833 261.811 145.5C261.478 147.167 260.978 148.917 260.311 150.75C259.811 151.083 259.478 151.583 259.311 152.25C259.145 152.75 258.728 153.333 258.061 154C257.061 156.167 255.895 158.417 254.561 160.75C253.228 163.083 251.811 165.167 250.311 167C248.478 169.167 246.311 170.833 243.811 172C241.311 173.167 238.728 173.75 236.061 173.75H233.811C229.811 173.083 226.395 172 223.561 170.5C220.895 168.833 218.728 166.583 217.061 163.75C215.061 160.417 213.811 156.333 213.311 151.5C212.978 146.667 213.145 141.667 213.811 136.5C214.478 131.333 215.395 126.333 216.561 121.5C217.895 116.5 219.228 112.333 220.561 109C221.895 105.833 223.311 102.667 224.811 99.5C226.311 96.1667 228.478 93.8333 231.311 92.5C232.978 91.6667 234.228 91.25 235.061 91.25C236.061 91.25 237.061 91.25 238.061 91.25C240.561 92.5833 242.728 93.0833 244.561 92.75C246.395 92.4167 248.145 91.5833 249.811 90.25C251.478 88.9167 253.061 87.4167 254.561 85.75C256.228 83.9167 258.145 82.25 260.311 80.75C264.145 77.9167 268.061 75.5 272.061 73.5C276.061 71.3333 280.228 70 284.561 69.5C292.395 69 299.145 71.25 304.811 76.25C310.478 81.25 314.478 89.0833 316.811 99.75C318.311 106.417 320.228 113.083 322.561 119.75C325.061 126.25 327.978 133.167 331.311 140.5Z" fill="#DC5639"/>
<path d="M459.639 116C461.806 118.667 463.723 121.417 465.389 124.25C467.223 126.917 468.139 130.167 468.139 134C468.139 138.833 466.556 142.833 463.389 146C460.223 149.167 456.223 150.75 451.389 150.75C448.556 150.75 445.806 150.5 443.139 150C440.639 149.333 437.723 148.167 434.389 146.5C433.889 146 433.139 145.5 432.139 145C431.306 144.333 430.306 143.417 429.139 142.25C427.139 140.25 425.306 139.25 423.639 139.25C422.306 139.25 421.056 139.833 419.889 141C418.723 142 417.473 143.167 416.139 144.5C414.973 145.833 413.639 147.25 412.139 148.75C410.639 150.083 408.806 151.167 406.639 152C406.139 152.5 405.139 153.167 403.639 154C402.306 154.833 401.389 155.5 400.889 156C396.556 157.667 392.556 159 388.889 160C385.223 160.833 381.806 161.25 378.639 161.25C376.473 161.25 374.556 161.167 372.889 161C371.223 160.833 369.306 160.25 367.139 159.25C362.306 157.583 358.889 154.75 356.889 150.75C354.889 146.583 354.473 141.333 355.639 135C355.973 131.833 356.723 128.667 357.889 125.5C359.223 122.333 360.889 119.333 362.889 116.5C364.889 113.667 367.056 111.083 369.389 108.75C371.889 106.25 374.306 104.083 376.639 102.25C377.473 101.417 378.889 100.417 380.889 99.25C382.889 98.0833 384.973 96.9167 387.139 95.75C389.473 94.5833 391.723 93.6667 393.889 93C396.056 92.1667 397.639 91.75 398.639 91.75C400.306 90.5833 401.889 89.6667 403.389 89C405.056 88.3333 406.639 87.5 408.139 86.5C412.473 84.3333 416.723 82.25 420.889 80.25C425.223 78.0833 430.056 77 435.389 77C438.556 77.1667 441.056 77.9167 442.889 79.25C444.723 80.4167 446.139 81.9167 447.139 83.75C448.306 85.4167 449.139 87.3333 449.639 89.5C450.306 91.6667 450.889 93.8333 451.389 96C451.389 99.3333 452.139 102.917 453.639 106.75C455.306 110.583 457.306 113.667 459.639 116Z" fill="#DC5639"/>
<path d="M565.784 127.5C568.617 127.167 572.201 126.917 576.534 126.75C580.867 126.417 584.867 126.5 588.534 127C592.367 127.5 595.367 128.667 597.534 130.5C599.701 132.167 600.117 135 598.784 139C596.617 145.333 593.201 150.583 588.534 154.75C583.867 158.75 578.534 161.667 572.534 163.5C566.534 165.333 560.117 166.083 553.284 165.75C546.451 165.417 539.701 163.917 533.034 161.25C527.867 159.25 522.867 157.5 518.034 156C513.201 154.333 508.201 152.583 503.034 150.75C500.367 149.75 497.784 148.583 495.284 147.25C492.951 145.75 491.117 143.75 489.784 141.25C487.784 137.25 486.951 133 487.284 128.5C487.784 124 488.701 119.5 490.034 115C491.534 110.5 493.284 106.083 495.284 101.75C497.284 97.4167 498.867 93.4167 500.034 89.75C502.701 82.25 506.951 75.25 512.784 68.75C518.784 62.0833 525.867 57.0833 534.034 53.75C537.701 52.25 541.534 51.5 545.534 51.5C549.534 51.5 553.451 52.0833 557.284 53.25C561.117 54.4167 564.617 56.1667 567.784 58.5C571.117 60.8333 573.867 63.5 576.034 66.5C581.867 75.1667 582.034 83.9167 576.534 92.75C571.034 101.583 559.867 110 543.034 118C542.867 118.333 542.034 119 540.534 120C539.201 120.833 537.784 121.833 536.284 123C534.951 124.167 533.867 125.333 533.034 126.5C532.201 127.667 532.201 128.667 533.034 129.5C533.367 129.667 535.034 129.667 538.034 129.5C541.034 129.333 544.451 129.167 548.284 129C552.117 128.667 555.701 128.333 559.034 128C562.534 127.667 564.784 127.5 565.784 127.5ZM528.784 95C528.784 96 529.034 96.6667 529.534 97C530.034 97.1667 531.117 97 532.784 96.5C533.451 96.5 534.701 96 536.534 95C538.367 93.8333 540.201 92.5 542.034 91C544.034 89.3333 545.784 87.75 547.284 86.25C548.784 84.5833 549.534 83.25 549.534 82.25C550.201 80.4167 550.034 78.8333 549.034 77.5C548.034 76.1667 546.451 76 544.284 77C540.951 78.1667 538.117 80.25 535.784 83.25C535.284 83.75 534.617 84.5 533.784 85.5C533.117 86.5 532.367 87.5833 531.534 88.75C530.867 89.75 530.201 90.8333 529.534 92C529.034 93.1667 528.784 94.1667 528.784 95Z" fill="#DC5639"/>
<path d="M704.893 88C706.727 94.3333 707.143 100.75 706.143 107.25C705.31 113.75 704.143 120.083 702.643 126.25C701.143 131.917 698.893 137.417 695.893 142.75C692.893 147.917 689.31 152.5 685.143 156.5C680.977 160.333 676.227 163.417 670.893 165.75C665.56 168.083 659.727 169.25 653.393 169.25C649.227 169.25 645.393 168.417 641.893 166.75C638.393 165.083 635.393 162.917 632.893 160.25C630.393 157.417 628.31 154.167 626.643 150.5C624.977 146.833 623.893 143 623.393 139C622.56 132.167 622.227 125.667 622.393 119.5C622.727 113.167 623.143 106.667 623.643 100C623.81 96.8333 624.227 93.6667 624.893 90.5C625.56 87.1667 626.643 84.1667 628.143 81.5C629.643 78.8333 631.643 76.6667 634.143 75C636.81 73.1667 639.977 72.25 643.643 72.25C645.977 72.25 648.227 72.6667 650.393 73.5C652.727 74.3333 654.56 75.5833 655.893 77.25C658.56 80.4167 659.893 84.0833 659.893 88.25C660.06 92.25 660.227 95.9167 660.393 99.25C659.06 105.25 658.56 109.917 658.893 113.25C659.227 116.583 660.31 118.25 662.143 118.25C664.31 118.25 667.06 115.833 670.393 111C671.227 109.5 671.977 107.583 672.643 105.25C673.477 102.75 674.31 100.25 675.143 97.75C676.143 95.0833 677.143 92.5833 678.143 90.25C679.143 87.9167 680.143 86.1667 681.143 85C683.31 82.6667 685.393 80.8333 687.393 79.5C689.393 78.1667 691.81 77.9167 694.643 78.75C697.477 79.5833 699.727 80.8333 701.393 82.5C703.06 84.1667 704.227 86 704.893 88Z" fill="#DC5639"/>
<path d="M732.354 145.75C732.354 143.417 732.271 139.917 732.104 135.25C731.938 130.417 731.938 125.333 732.104 120C732.271 114.667 732.688 109.417 733.354 104.25C734.188 99.0833 735.438 94.9167 737.104 91.75C738.104 90.0833 739.438 88.9167 741.104 88.25C742.938 87.4167 744.604 86.1667 746.104 84.5C747.771 82.6667 749.188 81.0833 750.354 79.75C751.521 78.4167 752.771 77.25 754.104 76.25C757.771 73.5833 761.604 70.9167 765.604 68.25C769.604 65.5833 773.521 63.3333 777.354 61.5C780.521 60 783.938 59.25 787.604 59.25C791.271 59.0833 794.854 59 798.354 59C802.354 59 806.188 59 809.854 59C813.521 58.8333 817.354 58.5 821.354 58C823.854 57.5 826.271 57.4167 828.604 57.75C830.938 58.0833 833.104 58.5 835.104 59C837.438 59.6667 839.521 60.8333 841.354 62.5C843.188 64.1667 844.604 66.0833 845.604 68.25C846.771 70.4167 847.354 72.6667 847.354 75C847.521 77.3333 846.854 79.4167 845.354 81.25C843.688 83.25 841.271 84.6667 838.104 85.5C834.938 86.3333 832.271 87 830.104 87.5C828.271 87.6667 825.354 88.0833 821.354 88.75C817.354 89.25 813.104 90.0833 808.604 91.25C804.271 92.25 800.104 93.6667 796.104 95.5C792.271 97.1667 789.604 99.4167 788.104 102.25C787.104 105.583 785.854 109.167 784.354 113C782.854 116.833 781.438 120.583 780.104 124.25C778.938 128.083 777.938 131.917 777.104 135.75C776.438 139.417 775.688 143 774.854 146.5C774.021 150 772.938 153.333 771.604 156.5C770.271 159.667 768.438 162.75 766.104 165.75C764.438 167.75 762.938 169.667 761.604 171.5C760.438 173.333 758.688 174.25 756.354 174.25C751.521 175.083 747.188 174.083 743.354 171.25C738.688 167.917 735.688 164.333 734.354 160.5C733.021 156.5 732.354 151.583 732.354 145.75Z" fill="#DC5639"/>
</svg>
