<svg width="845" height="208" viewBox="0 0 845 208" fill="none" xmlns="http://www.w3.org/2000/svg">
<path d="M98.2917 4.75C101.792 7.58334 103.708 11.5 104.042 16.5C104.542 21.5 104.125 26.3333 102.792 31C102.125 33.1667 100.792 35.0833 98.7917 36.75C96.7917 38.25 94.625 39.6667 92.2917 41C89.9583 42.3333 87.625 43.75 85.2917 45.25C83.125 46.5833 81.2917 48.1667 79.7917 50C79.4583 50.3333 78.875 51.5 78.0417 53.5C77.375 55.5 76.625 58.0833 75.7917 61.25C74.9583 64.25 74.125 67.5 73.2917 71C72.4583 74.5 71.7917 78 71.2917 81.5C70.9583 84.8333 70.7917 87.8333 70.7917 90.5C70.9583 93.1667 71.5417 95.1667 72.5417 96.5C72.5417 96.6667 73.7917 97 76.2917 97.5C78.9583 97.8333 81.875 98.25 85.0417 98.75C88.2083 99.25 91.125 99.75 93.7917 100.25C96.625 100.583 98.125 100.917 98.2917 101.25C106.458 101.583 112.125 103.083 115.292 105.75C118.458 108.417 120.042 111.417 120.042 114.75C120.208 118.083 119.125 121.25 116.792 124.25C114.625 127.25 112.208 129.167 109.542 130C107.875 131.167 105.875 132.25 103.542 133.25C101.375 134.25 99.2083 135.167 97.0417 136C96.0417 136.333 93.9583 136.917 90.7917 137.75C87.7917 138.417 84.5417 139.167 81.0417 140C77.7083 140.833 74.7083 141.833 72.0417 143C69.5417 144 68.2917 145 68.2917 146C68.2917 146.667 68.2083 148.833 68.0417 152.5C67.875 156.167 67.7083 160.083 67.5417 164.25C67.5417 168.25 67.4583 172.083 67.2917 175.75C67.125 179.25 67.0417 181.25 67.0417 181.75C66.875 184.25 66.375 187 65.5417 190C64.875 193.167 63.7917 196.083 62.2917 198.75C60.9583 201.417 59.2083 203.583 57.0417 205.25C55.0417 207.083 52.7917 208 50.2917 208C48.2917 208 46.2917 207.5 44.2917 206.5C42.4583 205.5 40.7917 204.167 39.2917 202.5C37.7917 200.833 36.5417 199 35.5417 197C34.5417 195 34.0417 193.083 34.0417 191.25C33.375 188.917 33.2917 185.583 33.7917 181.25C34.2917 177.083 34.7917 172.667 35.2917 168C35.7917 163.167 35.9583 158.417 35.7917 153.75C35.7917 149.083 34.875 145.167 33.0417 142C33.0417 141.667 31.7917 141.25 29.2917 140.75C26.9583 140.25 23.2917 140.083 18.2917 140.25C16.9583 140.583 15.7083 140.583 14.5417 140.25C13.5417 139.917 12.2917 139.583 10.7917 139.25C8.45833 138.417 6.45833 137.25 4.79167 135.75C3.125 134.25 1.875 132.583 1.04167 130.75C0.208333 128.583 -0.125 126.75 0.0416667 125.25C0.208333 123.583 1.04167 121.833 2.54167 120C3.875 118.167 5.625 116.583 7.79167 115.25C10.125 113.917 12.2083 112.667 14.0417 111.5L15.5417 111.25C16.5417 110.583 17.625 110.167 18.7917 110C19.9583 109.833 21.2083 109.417 22.5417 108.75C25.2083 108.583 27.2917 108.333 28.7917 108C30.2917 107.667 31.375 107.083 32.0417 106.25C32.875 105.417 33.375 104.333 33.5417 103C33.7083 101.5 33.7917 99.6667 33.7917 97.5C33.4583 97.1667 33.2917 96.5833 33.2917 95.75C33.125 91.9167 33.125 87.25 33.2917 81.75C33.625 76.25 34.125 70.4167 34.7917 64.25C35.625 57.9167 36.625 51.5833 37.7917 45.25C39.125 38.9167 40.7083 33 42.5417 27.5C44.375 21.8333 46.4583 17 48.7917 13C51.125 8.83333 53.7917 5.91667 56.7917 4.25C59.2917 2.91667 62.5417 1.91667 66.5417 1.25C70.5417 0.416666 74.625 0 78.7917 0C82.7917 0 86.5417 0.416666 90.0417 1.25C93.7083 1.91667 96.4583 3.08333 98.2917 4.75Z" fill="#DC5639"/>
<path d="M187.983 15.75C187.983 18.9167 188.316 22.0833 188.983 25.25C189.65 28.4167 190.066 31.5833 190.233 34.75C190.566 37.9167 190.4 41.0833 189.733 44.25C189.066 47.25 187.4 50.1667 184.733 53C184.733 53.3333 184.566 54.0833 184.233 55.25C184.066 56.25 183.816 57.4167 183.483 58.75C183.15 60.25 182.733 61.9167 182.233 63.75C181.066 66.75 180.316 69.5 179.983 72C179.816 74.5 179.816 77 179.983 79.5C180.15 81.8333 180.316 84.3333 180.483 87C180.816 89.5 180.983 92.4167 180.983 95.75C180.983 101.75 181.233 108.083 181.733 114.75C182.233 121.417 182.65 128.167 182.983 135C183.316 141.833 183.483 148.583 183.483 155.25C183.483 161.917 182.983 168.167 181.983 174C181.983 175 181.816 176 181.483 177C181.15 178 180.983 179.333 180.983 181C180.816 182.333 180.066 183.417 178.733 184.25C177.4 185.083 175.816 185.75 173.983 186.25C172.316 186.75 170.566 187.083 168.733 187.25C166.9 187.417 165.316 187.5 163.983 187.5H162.983C155.15 186.5 149.066 182.417 144.733 175.25C142.066 169.25 140.483 162.417 139.983 154.75C139.483 147.083 139.483 139.25 139.983 131.25C140.65 123.083 141.483 115.083 142.483 107.25C143.65 99.4167 144.566 92.3333 145.233 86C145.9 80 146.566 73.25 147.233 65.75C148.066 58.0833 148.9 50.75 149.733 43.75C150.566 36.75 151.4 30.5 152.233 25C153.233 19.5 154.066 15.9167 154.733 14.25C155.066 12.9167 155.65 11.5833 156.483 10.25C157.316 8.91667 158.316 7.66667 159.483 6.50001C160.816 5.16667 162.15 4.08334 163.483 3.25C164.983 2.25001 166.483 1.66667 167.983 1.5C172.65 1 176.816 2 180.483 4.5C184.15 7 186.65 10.75 187.983 15.75Z" fill="#DC5639"/>
<path d="M317.061 116C319.228 118.667 321.145 121.417 322.811 124.25C324.645 126.917 325.561 130.167 325.561 134C325.561 138.833 323.978 142.833 320.811 146C317.645 149.167 313.645 150.75 308.811 150.75C305.978 150.75 303.228 150.5 300.561 150C298.061 149.333 295.145 148.167 291.811 146.5C291.311 146 290.561 145.5 289.561 145C288.728 144.333 287.728 143.417 286.561 142.25C284.561 140.25 282.728 139.25 281.061 139.25C279.728 139.25 278.478 139.833 277.311 141C276.145 142 274.895 143.167 273.561 144.5C272.395 145.833 271.061 147.25 269.561 148.75C268.061 150.083 266.228 151.167 264.061 152C263.561 152.5 262.561 153.167 261.061 154C259.728 154.833 258.811 155.5 258.311 156C253.978 157.667 249.978 159 246.311 160C242.645 160.833 239.228 161.25 236.061 161.25C233.895 161.25 231.978 161.167 230.311 161C228.645 160.833 226.728 160.25 224.561 159.25C219.728 157.583 216.311 154.75 214.311 150.75C212.311 146.583 211.895 141.333 213.061 135C213.395 131.833 214.145 128.667 215.311 125.5C216.645 122.333 218.311 119.333 220.311 116.5C222.311 113.667 224.478 111.083 226.811 108.75C229.311 106.25 231.728 104.083 234.061 102.25C234.895 101.417 236.311 100.417 238.311 99.25C240.311 98.0833 242.395 96.9167 244.561 95.75C246.895 94.5833 249.145 93.6667 251.311 93C253.478 92.1667 255.061 91.75 256.061 91.75C257.728 90.5833 259.311 89.6667 260.811 89C262.478 88.3333 264.061 87.5 265.561 86.5C269.895 84.3333 274.145 82.25 278.311 80.25C282.645 78.0833 287.478 77 292.811 77C295.978 77.1667 298.478 77.9167 300.311 79.25C302.145 80.4167 303.561 81.9167 304.561 83.75C305.728 85.4167 306.561 87.3333 307.061 89.5C307.728 91.6667 308.311 93.8333 308.811 96C308.811 99.3333 309.561 102.917 311.061 106.75C312.728 110.583 314.728 113.667 317.061 116Z" fill="#DC5639"/>
<path d="M466.321 140.5C467.154 142.167 467.738 144.167 468.071 146.5C468.404 148.667 468.488 151 468.321 153.5C468.321 155.833 467.988 158.25 467.321 160.75C466.821 163.083 466.071 165.167 465.071 167C463.238 168.833 461.488 170.25 459.821 171.25C458.154 172.25 456.154 173.083 453.821 173.75C451.321 173.75 448.821 172.917 446.321 171.25C443.821 169.583 441.404 167.5 439.071 165C436.738 162.5 434.571 159.833 432.571 157C430.571 154.167 428.821 151.667 427.321 149.5L426.321 148.25C424.488 145.417 423.321 142.333 422.821 139C422.321 135.5 421.821 132.25 421.321 129.25C420.821 126.25 419.988 123.75 418.821 121.75C417.821 119.583 415.821 118.5 412.821 118.5C410.488 119.5 408.571 120.917 407.071 122.75C405.738 124.583 404.571 126.5 403.571 128.5C402.571 130.5 401.654 132.583 400.821 134.75C400.154 136.75 399.404 138.667 398.571 140.5C397.738 142.167 397.154 143.833 396.821 145.5C396.488 147.167 395.988 148.917 395.321 150.75C394.821 151.083 394.488 151.583 394.321 152.25C394.154 152.75 393.738 153.333 393.071 154C392.071 156.167 390.904 158.417 389.571 160.75C388.238 163.083 386.821 165.167 385.321 167C383.488 169.167 381.321 170.833 378.821 172C376.321 173.167 373.738 173.75 371.071 173.75H368.821C364.821 173.083 361.404 172 358.571 170.5C355.904 168.833 353.738 166.583 352.071 163.75C350.071 160.417 348.821 156.333 348.321 151.5C347.988 146.667 348.154 141.667 348.821 136.5C349.488 131.333 350.404 126.333 351.571 121.5C352.904 116.5 354.238 112.333 355.571 109C356.904 105.833 358.321 102.667 359.821 99.5C361.321 96.1667 363.488 93.8333 366.321 92.5C367.988 91.6667 369.238 91.25 370.071 91.25C371.071 91.25 372.071 91.25 373.071 91.25C375.571 92.5833 377.738 93.0833 379.571 92.75C381.404 92.4167 383.154 91.5833 384.821 90.25C386.488 88.9167 388.071 87.4167 389.571 85.75C391.238 83.9167 393.154 82.25 395.321 80.75C399.154 77.9167 403.071 75.5 407.071 73.5C411.071 71.3333 415.238 70 419.571 69.5C427.404 69 434.154 71.25 439.821 76.25C445.488 81.25 449.488 89.0833 451.821 99.75C453.321 106.417 455.238 113.083 457.571 119.75C460.071 126.25 462.988 133.167 466.321 140.5Z" fill="#DC5639"/>
<path d="M563.342 127.5C566.176 127.167 569.759 126.917 574.092 126.75C578.426 126.417 582.426 126.5 586.092 127C589.926 127.5 592.926 128.667 595.092 130.5C597.259 132.167 597.676 135 596.342 139C594.176 145.333 590.759 150.583 586.092 154.75C581.426 158.75 576.092 161.667 570.092 163.5C564.092 165.333 557.676 166.083 550.842 165.75C544.009 165.417 537.259 163.917 530.592 161.25C525.426 159.25 520.426 157.5 515.592 156C510.759 154.333 505.759 152.583 500.592 150.75C497.926 149.75 495.342 148.583 492.842 147.25C490.509 145.75 488.676 143.75 487.342 141.25C485.342 137.25 484.509 133 484.842 128.5C485.342 124 486.259 119.5 487.592 115C489.092 110.5 490.842 106.083 492.842 101.75C494.842 97.4167 496.426 93.4167 497.592 89.75C500.259 82.25 504.509 75.25 510.342 68.75C516.342 62.0833 523.426 57.0833 531.592 53.75C535.259 52.25 539.092 51.5 543.092 51.5C547.092 51.5 551.009 52.0833 554.842 53.25C558.676 54.4167 562.176 56.1667 565.342 58.5C568.676 60.8333 571.426 63.5 573.592 66.5C579.426 75.1667 579.592 83.9167 574.092 92.75C568.592 101.583 557.426 110 540.592 118C540.426 118.333 539.592 119 538.092 120C536.759 120.833 535.342 121.833 533.842 123C532.509 124.167 531.426 125.333 530.592 126.5C529.759 127.667 529.759 128.667 530.592 129.5C530.926 129.667 532.592 129.667 535.592 129.5C538.592 129.333 542.009 129.167 545.842 129C549.676 128.667 553.259 128.333 556.592 128C560.092 127.667 562.342 127.5 563.342 127.5ZM526.342 95C526.342 96 526.592 96.6667 527.092 97C527.592 97.1667 528.676 97 530.342 96.5C531.009 96.5 532.259 96 534.092 95C535.926 93.8333 537.759 92.5 539.592 91C541.592 89.3333 543.342 87.75 544.842 86.25C546.342 84.5833 547.092 83.25 547.092 82.25C547.759 80.4167 547.592 78.8333 546.592 77.5C545.592 76.1667 544.009 76 541.842 77C538.509 78.1667 535.676 80.25 533.342 83.25C532.842 83.75 532.176 84.5 531.342 85.5C530.676 86.5 529.926 87.5833 529.092 88.75C528.426 89.75 527.759 90.8333 527.092 92C526.592 93.1667 526.342 94.1667 526.342 95Z" fill="#DC5639"/>
<path d="M702.452 88C704.285 94.3333 704.702 100.75 703.702 107.25C702.869 113.75 701.702 120.083 700.202 126.25C698.702 131.917 696.452 137.417 693.452 142.75C690.452 147.917 686.869 152.5 682.702 156.5C678.535 160.333 673.785 163.417 668.452 165.75C663.119 168.083 657.285 169.25 650.952 169.25C646.785 169.25 642.952 168.417 639.452 166.75C635.952 165.083 632.952 162.917 630.452 160.25C627.952 157.417 625.869 154.167 624.202 150.5C622.535 146.833 621.452 143 620.952 139C620.119 132.167 619.785 125.667 619.952 119.5C620.285 113.167 620.702 106.667 621.202 100C621.369 96.8333 621.785 93.6667 622.452 90.5C623.119 87.1667 624.202 84.1667 625.702 81.5C627.202 78.8333 629.202 76.6667 631.702 75C634.369 73.1667 637.535 72.25 641.202 72.25C643.535 72.25 645.785 72.6667 647.952 73.5C650.285 74.3333 652.119 75.5833 653.452 77.25C656.119 80.4167 657.452 84.0833 657.452 88.25C657.619 92.25 657.785 95.9167 657.952 99.25C656.619 105.25 656.119 109.917 656.452 113.25C656.785 116.583 657.869 118.25 659.702 118.25C661.869 118.25 664.619 115.833 667.952 111C668.785 109.5 669.535 107.583 670.202 105.25C671.035 102.75 671.869 100.25 672.702 97.75C673.702 95.0833 674.702 92.5833 675.702 90.25C676.702 87.9167 677.702 86.1667 678.702 85C680.869 82.6667 682.952 80.8333 684.952 79.5C686.952 78.1667 689.369 77.9167 692.202 78.75C695.035 79.5833 697.285 80.8333 698.952 82.5C700.619 84.1667 701.785 86 702.452 88Z" fill="#DC5639"/>
<path d="M729.913 145.75C729.913 143.417 729.829 139.917 729.663 135.25C729.496 130.417 729.496 125.333 729.663 120C729.829 114.667 730.246 109.417 730.913 104.25C731.746 99.0833 732.996 94.9167 734.663 91.75C735.663 90.0833 736.996 88.9167 738.663 88.25C740.496 87.4167 742.163 86.1667 743.663 84.5C745.329 82.6667 746.746 81.0833 747.913 79.75C749.079 78.4167 750.329 77.25 751.663 76.25C755.329 73.5833 759.163 70.9167 763.163 68.25C767.163 65.5833 771.079 63.3333 774.913 61.5C778.079 60 781.496 59.25 785.163 59.25C788.829 59.0833 792.413 59 795.913 59C799.913 59 803.746 59 807.413 59C811.079 58.8333 814.913 58.5 818.913 58C821.413 57.5 823.829 57.4167 826.163 57.75C828.496 58.0833 830.663 58.5 832.663 59C834.996 59.6667 837.079 60.8333 838.913 62.5C840.746 64.1667 842.163 66.0833 843.163 68.25C844.329 70.4167 844.913 72.6667 844.913 75C845.079 77.3333 844.413 79.4167 842.913 81.25C841.246 83.25 838.829 84.6667 835.663 85.5C832.496 86.3333 829.829 87 827.663 87.5C825.829 87.6667 822.913 88.0833 818.913 88.75C814.913 89.25 810.663 90.0833 806.163 91.25C801.829 92.25 797.663 93.6667 793.663 95.5C789.829 97.1667 787.163 99.4167 785.663 102.25C784.663 105.583 783.413 109.167 781.913 113C780.413 116.833 778.996 120.583 777.663 124.25C776.496 128.083 775.496 131.917 774.663 135.75C773.996 139.417 773.246 143 772.413 146.5C771.579 150 770.496 153.333 769.163 156.5C767.829 159.667 765.996 162.75 763.663 165.75C761.996 167.75 760.496 169.667 759.163 171.5C757.996 173.333 756.246 174.25 753.913 174.25C749.079 175.083 744.746 174.083 740.913 171.25C736.246 167.917 733.246 164.333 731.913 160.5C730.579 156.5 729.913 151.583 729.913 145.75Z" fill="#DC5639"/>
</svg>
